<svg width="116" height="123" viewBox="0 0 116 123" fill="none" xmlns="http://www.w3.org/2000/svg">
<g clip-path="url(#clip0_102_2)">
<path fill-rule="evenodd" clip-rule="evenodd" d="M108.07 15.56L5.7 52.84L0 37.22L102.37 0L108.07 15.56ZM115.46 122.88H5.87V53.67H115.46V122.88V122.88ZM101.79 15.65V2.36L94.56 4.97V18.31L101.79 15.65ZM87.39 20.93V7.59L80.13 10.17V23.62L87.39 20.93ZM72.49 26.07V12.87L65.23 15.48V28.74L72.49 26.07ZM113.43 68.32L108.87 55.78H101.14L105.7 68.32H113.43ZM97.64 68.32L93.08 55.78H85.32L89.91 68.32H97.64ZM57.98 31.69V18.32L50.73 20.93V34.27L57.98 31.69ZM82.41 68.32L77.85 55.78H70.12L74.68 68.32H82.41ZM43.08 36.8V23.54L35.74 26.15V39.49L43.08 36.8ZM66.62 68.32L62.06 55.78H54.31L58.87 68.32H66.62ZM28.82 42.28V28.9L21.51 31.6V44.86L28.82 42.28ZM51.06 68.32L46.5 55.78H38.77L43.33 68.32H51.06ZM13.84 47.39V34.13L6.58 36.71V50.08L13.84 47.39ZM35.36 68.32L30.72 55.78H23.05L27.53 68.32H35.36ZM19.96 68.32L15.32 55.78H7.59L12.15 68.32H19.96Z" fill="black"/>
<path d="M43.5527 82.4688V91H42.416L38.1211 84.4199V91H36.9902V82.4688H38.1211L42.4336 89.0664V82.4688H43.5527ZM45.1055 87.9004V87.7656C45.1055 87.3086 45.1719 86.8848 45.3047 86.4941C45.4375 86.0996 45.6289 85.7578 45.8789 85.4688C46.1289 85.1758 46.4316 84.9492 46.7871 84.7891C47.1426 84.625 47.541 84.543 47.9824 84.543C48.4277 84.543 48.8281 84.625 49.1836 84.7891C49.543 84.9492 49.8477 85.1758 50.0977 85.4688C50.3516 85.7578 50.5449 86.0996 50.6777 86.4941C50.8105 86.8848 50.877 87.3086 50.877 87.7656V87.9004C50.877 88.3574 50.8105 88.7812 50.6777 89.1719C50.5449 89.5625 50.3516 89.9043 50.0977 90.1973C49.8477 90.4863 49.5449 90.7129 49.1895 90.877C48.8379 91.0371 48.4395 91.1172 47.9941 91.1172C47.5488 91.1172 47.1484 91.0371 46.793 90.877C46.4375 90.7129 46.1328 90.4863 45.8789 90.1973C45.6289 89.9043 45.4375 89.5625 45.3047 89.1719C45.1719 88.7812 45.1055 88.3574 45.1055 87.9004ZM46.1895 87.7656V87.9004C46.1895 88.2168 46.2266 88.5156 46.3008 88.7969C46.375 89.0742 46.4863 89.3203 46.6348 89.5352C46.7871 89.75 46.9766 89.9199 47.2031 90.0449C47.4297 90.166 47.6934 90.2266 47.9941 90.2266C48.291 90.2266 48.5508 90.166 48.7734 90.0449C49 89.9199 49.1875 89.75 49.3359 89.5352C49.4844 89.3203 49.5957 89.0742 49.6699 88.7969C49.748 88.5156 49.7871 88.2168 49.7871 87.9004V87.7656C49.7871 87.4531 49.748 87.1582 49.6699 86.8809C49.5957 86.5996 49.4824 86.3516 49.3301 86.1367C49.1816 85.918 48.9941 85.7461 48.7676 85.6211C48.5449 85.4961 48.2832 85.4336 47.9824 85.4336C47.6855 85.4336 47.4238 85.4961 47.1973 85.6211C46.9746 85.7461 46.7871 85.918 46.6348 86.1367C46.4863 86.3516 46.375 86.5996 46.3008 86.8809C46.2266 87.1582 46.1895 87.4531 46.1895 87.7656ZM56.5898 82.4688V91H55.459V82.4688H56.5898ZM59.5605 85.9199V91H58.4707V84.6602H59.502L59.5605 85.9199ZM59.3379 87.5898L58.834 87.5723C58.8379 87.1387 58.8945 86.7383 59.0039 86.3711C59.1133 86 59.2754 85.6777 59.4902 85.4043C59.7051 85.1309 59.9727 84.9199 60.293 84.7715C60.6133 84.6191 60.9844 84.543 61.4062 84.543C61.7031 84.543 61.9766 84.5859 62.2266 84.6719C62.4766 84.7539 62.6934 84.8848 62.877 85.0645C63.0605 85.2441 63.2031 85.4746 63.3047 85.7559C63.4062 86.0371 63.457 86.377 63.457 86.7754V91H62.373V86.8281C62.373 86.4961 62.3164 86.2305 62.2031 86.0312C62.0938 85.832 61.9375 85.6875 61.7344 85.5977C61.5312 85.5039 61.293 85.457 61.0195 85.457C60.6992 85.457 60.4316 85.5137 60.2168 85.627C60.002 85.7402 59.8301 85.8965 59.7012 86.0957C59.5723 86.2949 59.4785 86.5234 59.4199 86.7812C59.3652 87.0352 59.3379 87.3047 59.3379 87.5898ZM63.4453 86.9922L62.7188 87.2148C62.7227 86.8672 62.7793 86.5332 62.8887 86.2129C63.002 85.8926 63.1641 85.6074 63.375 85.3574C63.5898 85.1074 63.8535 84.9102 64.166 84.7656C64.4785 84.6172 64.8359 84.543 65.2383 84.543C65.5781 84.543 65.8789 84.5879 66.1406 84.6777C66.4062 84.7676 66.6289 84.9062 66.8086 85.0938C66.9922 85.2773 67.1309 85.5137 67.2246 85.8027C67.3184 86.0918 67.3652 86.4355 67.3652 86.834V91H66.2754V86.8223C66.2754 86.4668 66.2188 86.1914 66.1055 85.9961C65.9961 85.7969 65.8398 85.6582 65.6367 85.5801C65.4375 85.498 65.1992 85.457 64.9219 85.457C64.6836 85.457 64.4727 85.498 64.2891 85.5801C64.1055 85.6621 63.9512 85.7754 63.8262 85.9199C63.7012 86.0605 63.6055 86.2227 63.5391 86.4062C63.4766 86.5898 63.4453 86.7852 63.4453 86.9922ZM72.7441 89.916V86.6523C72.7441 86.4023 72.6934 86.1855 72.5918 86.002C72.4941 85.8145 72.3457 85.6699 72.1465 85.5684C71.9473 85.4668 71.7012 85.416 71.4082 85.416C71.1348 85.416 70.8945 85.4629 70.6875 85.5566C70.4844 85.6504 70.3242 85.7734 70.207 85.9258C70.0938 86.0781 70.0371 86.2422 70.0371 86.418H68.9531C68.9531 86.1914 69.0117 85.9668 69.1289 85.7441C69.2461 85.5215 69.4141 85.3203 69.6328 85.1406C69.8555 84.957 70.1211 84.8125 70.4297 84.707C70.7422 84.5977 71.0898 84.543 71.4727 84.543C71.9336 84.543 72.3398 84.6211 72.6914 84.7773C73.0469 84.9336 73.3242 85.1699 73.5234 85.4863C73.7266 85.7988 73.8281 86.1914 73.8281 86.6641V89.6172C73.8281 89.8281 73.8457 90.0527 73.8809 90.291C73.9199 90.5293 73.9766 90.7344 74.0508 90.9062V91H72.9199C72.8652 90.875 72.8223 90.709 72.791 90.502C72.7598 90.291 72.7441 90.0957 72.7441 89.916ZM72.9316 87.1562L72.9434 87.918H71.8477C71.5391 87.918 71.2637 87.9434 71.0215 87.9941C70.7793 88.041 70.5762 88.1133 70.4121 88.2109C70.248 88.3086 70.123 88.4316 70.0371 88.5801C69.9512 88.7246 69.9082 88.8945 69.9082 89.0898C69.9082 89.2891 69.9531 89.4707 70.043 89.6348C70.1328 89.7988 70.2676 89.9297 70.4473 90.0273C70.6309 90.1211 70.8555 90.168 71.1211 90.168C71.4531 90.168 71.7461 90.0977 72 89.957C72.2539 89.8164 72.4551 89.6445 72.6035 89.4414C72.7559 89.2383 72.8379 89.041 72.8496 88.8496L73.3125 89.3711C73.2852 89.5352 73.2109 89.7168 73.0898 89.916C72.9688 90.1152 72.8066 90.3066 72.6035 90.4902C72.4043 90.6699 72.166 90.8203 71.8887 90.9414C71.6152 91.0586 71.3066 91.1172 70.9629 91.1172C70.5332 91.1172 70.1562 91.0332 69.832 90.8652C69.5117 90.6973 69.2617 90.4727 69.082 90.1914C68.9062 89.9062 68.8184 89.5879 68.8184 89.2363C68.8184 88.8965 68.8848 88.5977 69.0176 88.3398C69.1504 88.0781 69.3418 87.8613 69.5918 87.6895C69.8418 87.5137 70.1426 87.3809 70.4941 87.291C70.8457 87.2012 71.2383 87.1562 71.6719 87.1562H72.9316ZM79.6406 84.6602H80.625V90.8652C80.625 91.4238 80.5117 91.9004 80.2852 92.2949C80.0586 92.6895 79.7422 92.9883 79.3359 93.1914C78.9336 93.3984 78.4688 93.502 77.9414 93.502C77.7227 93.502 77.4648 93.4668 77.168 93.3965C76.875 93.3301 76.5859 93.2148 76.3008 93.0508C76.0195 92.8906 75.7832 92.6738 75.5918 92.4004L76.1602 91.7559C76.4258 92.0762 76.7031 92.2988 76.9922 92.4238C77.2852 92.5488 77.5742 92.6113 77.8594 92.6113C78.2031 92.6113 78.5 92.5469 78.75 92.418C79 92.2891 79.1934 92.0977 79.3301 91.8438C79.4707 91.5938 79.541 91.2852 79.541 90.918V86.0547L79.6406 84.6602ZM75.2754 87.9004V87.7773C75.2754 87.293 75.332 86.8535 75.4453 86.459C75.5625 86.0605 75.7285 85.7188 75.9434 85.4336C76.1621 85.1484 76.4258 84.9297 76.7344 84.7773C77.043 84.6211 77.3906 84.543 77.7773 84.543C78.1758 84.543 78.5234 84.6133 78.8203 84.7539C79.1211 84.8906 79.375 85.0918 79.582 85.3574C79.793 85.6191 79.959 85.9355 80.0801 86.3066C80.2012 86.6777 80.2852 87.0977 80.332 87.5664V88.1055C80.2891 88.5703 80.2051 88.9883 80.0801 89.3594C79.959 89.7305 79.793 90.0469 79.582 90.3086C79.375 90.5703 79.1211 90.7715 78.8203 90.9121C78.5195 91.0488 78.168 91.1172 77.7656 91.1172C77.3867 91.1172 77.043 91.0371 76.7344 90.877C76.4297 90.7168 76.168 90.4922 75.9492 90.2031C75.7305 89.9141 75.5625 89.5742 75.4453 89.1836C75.332 88.7891 75.2754 88.3613 75.2754 87.9004ZM76.3594 87.7773V87.9004C76.3594 88.2168 76.3906 88.5137 76.4531 88.791C76.5195 89.0684 76.6191 89.3125 76.752 89.5234C76.8887 89.7344 77.0625 89.9004 77.2734 90.0215C77.4844 90.1387 77.7363 90.1973 78.0293 90.1973C78.3887 90.1973 78.6855 90.1211 78.9199 89.9688C79.1543 89.8164 79.3398 89.6152 79.4766 89.3652C79.6172 89.1152 79.7266 88.8438 79.8047 88.5508V87.1387C79.7617 86.9238 79.6953 86.7168 79.6055 86.5176C79.5195 86.3145 79.4062 86.1348 79.2656 85.9785C79.1289 85.8184 78.959 85.6914 78.7559 85.5977C78.5527 85.5039 78.3145 85.457 78.041 85.457C77.7441 85.457 77.4883 85.5195 77.2734 85.6445C77.0625 85.7656 76.8887 85.9336 76.752 86.1484C76.6191 86.3594 76.5195 86.6055 76.4531 86.8867C76.3906 87.1641 76.3594 87.4609 76.3594 87.7773ZM84.9023 91.1172C84.4609 91.1172 84.0605 91.043 83.7012 90.8945C83.3457 90.7422 83.0391 90.5293 82.7812 90.2559C82.5273 89.9824 82.332 89.6582 82.1953 89.2832C82.0586 88.9082 81.9902 88.498 81.9902 88.0527V87.8066C81.9902 87.291 82.0664 86.832 82.2188 86.4297C82.3711 86.0234 82.5781 85.6797 82.8398 85.3984C83.1016 85.1172 83.3984 84.9043 83.7305 84.7598C84.0625 84.6152 84.4062 84.543 84.7617 84.543C85.2148 84.543 85.6055 84.6211 85.9336 84.7773C86.2656 84.9336 86.5371 85.1523 86.748 85.4336C86.959 85.7109 87.1152 86.0391 87.2168 86.418C87.3184 86.793 87.3691 87.2031 87.3691 87.6484V88.1348H82.6348V87.25H86.2852V87.168C86.2695 86.8867 86.2109 86.6133 86.1094 86.3477C86.0117 86.082 85.8555 85.8633 85.6406 85.6914C85.4258 85.5195 85.1328 85.4336 84.7617 85.4336C84.5156 85.4336 84.2891 85.4863 84.082 85.5918C83.875 85.6934 83.6973 85.8457 83.5488 86.0488C83.4004 86.252 83.2852 86.5 83.2031 86.793C83.1211 87.0859 83.0801 87.4238 83.0801 87.8066V88.0527C83.0801 88.3535 83.1211 88.6367 83.2031 88.9023C83.2891 89.1641 83.4121 89.3945 83.5723 89.5938C83.7363 89.793 83.9336 89.9492 84.1641 90.0625C84.3984 90.1758 84.6641 90.2324 84.9609 90.2324C85.3438 90.2324 85.668 90.1543 85.9336 89.998C86.1992 89.8418 86.4316 89.6328 86.6309 89.3711L87.2871 89.8926C87.1504 90.0996 86.9766 90.2969 86.7656 90.4844C86.5547 90.6719 86.2949 90.8242 85.9863 90.9414C85.6816 91.0586 85.3203 91.1172 84.9023 91.1172ZM40.1484 97.2246L37.3242 105H36.1699L39.4219 96.4688H40.166L40.1484 97.2246ZM42.5156 105L39.6855 97.2246L39.668 96.4688H40.4121L43.6758 105H42.5156ZM42.3691 101.842V102.768H37.5762V101.842H42.3691ZM46.2891 104.021L48.0234 98.6602H49.1309L46.8516 105H46.125L46.2891 104.021ZM44.8418 98.6602L46.6289 104.051L46.752 105H46.0254L43.7285 98.6602H44.8418ZM53.8184 103.916V100.652C53.8184 100.402 53.7676 100.186 53.666 100.002C53.5684 99.8145 53.4199 99.6699 53.2207 99.5684C53.0215 99.4668 52.7754 99.416 52.4824 99.416C52.209 99.416 51.9688 99.4629 51.7617 99.5566C51.5586 99.6504 51.3984 99.7734 51.2812 99.9258C51.168 100.078 51.1113 100.242 51.1113 100.418H50.0273C50.0273 100.191 50.0859 99.9668 50.2031 99.7441C50.3203 99.5215 50.4883 99.3203 50.707 99.1406C50.9297 98.957 51.1953 98.8125 51.5039 98.707C51.8164 98.5977 52.1641 98.543 52.5469 98.543C53.0078 98.543 53.4141 98.6211 53.7656 98.7773C54.1211 98.9336 54.3984 99.1699 54.5977 99.4863C54.8008 99.7988 54.9023 100.191 54.9023 100.664V103.617C54.9023 103.828 54.9199 104.053 54.9551 104.291C54.9941 104.529 55.0508 104.734 55.125 104.906V105H53.9941C53.9395 104.875 53.8965 104.709 53.8652 104.502C53.834 104.291 53.8184 104.096 53.8184 103.916ZM54.0059 101.156L54.0176 101.918H52.9219C52.6133 101.918 52.3379 101.943 52.0957 101.994C51.8535 102.041 51.6504 102.113 51.4863 102.211C51.3223 102.309 51.1973 102.432 51.1113 102.58C51.0254 102.725 50.9824 102.895 50.9824 103.09C50.9824 103.289 51.0273 103.471 51.1172 103.635C51.207 103.799 51.3418 103.93 51.5215 104.027C51.7051 104.121 51.9297 104.168 52.1953 104.168C52.5273 104.168 52.8203 104.098 53.0742 103.957C53.3281 103.816 53.5293 103.645 53.6777 103.441C53.8301 103.238 53.9121 103.041 53.9238 102.85L54.3867 103.371C54.3594 103.535 54.2852 103.717 54.1641 103.916C54.043 104.115 53.8809 104.307 53.6777 104.49C53.4785 104.67 53.2402 104.82 52.9629 104.941C52.6895 105.059 52.3809 105.117 52.0371 105.117C51.6074 105.117 51.2305 105.033 50.9062 104.865C50.5859 104.697 50.3359 104.473 50.1562 104.191C49.9805 103.906 49.8926 103.588 49.8926 103.236C49.8926 102.896 49.959 102.598 50.0918 102.34C50.2246 102.078 50.416 101.861 50.666 101.689C50.916 101.514 51.2168 101.381 51.5684 101.291C51.9199 101.201 52.3125 101.156 52.7461 101.156H54.0059ZM57.7852 98.6602V105H56.6953V98.6602H57.7852ZM56.6133 96.9785C56.6133 96.8027 56.666 96.6543 56.7715 96.5332C56.8809 96.4121 57.041 96.3516 57.252 96.3516C57.459 96.3516 57.6172 96.4121 57.7266 96.5332C57.8398 96.6543 57.8965 96.8027 57.8965 96.9785C57.8965 97.1465 57.8398 97.291 57.7266 97.4121C57.6172 97.5293 57.459 97.5879 57.252 97.5879C57.041 97.5879 56.8809 97.5293 56.7715 97.4121C56.666 97.291 56.6133 97.1465 56.6133 96.9785ZM60.7031 96V105H59.6133V96H60.7031ZM66.1816 103.916V100.652C66.1816 100.402 66.1309 100.186 66.0293 100.002C65.9316 99.8145 65.7832 99.6699 65.584 99.5684C65.3848 99.4668 65.1387 99.416 64.8457 99.416C64.5723 99.416 64.332 99.4629 64.125 99.5566C63.9219 99.6504 63.7617 99.7734 63.6445 99.9258C63.5312 100.078 63.4746 100.242 63.4746 100.418H62.3906C62.3906 100.191 62.4492 99.9668 62.5664 99.7441C62.6836 99.5215 62.8516 99.3203 63.0703 99.1406C63.293 98.957 63.5586 98.8125 63.8672 98.707C64.1797 98.5977 64.5273 98.543 64.9102 98.543C65.3711 98.543 65.7773 98.6211 66.1289 98.7773C66.4844 98.9336 66.7617 99.1699 66.9609 99.4863C67.1641 99.7988 67.2656 100.191 67.2656 100.664V103.617C67.2656 103.828 67.2832 104.053 67.3184 104.291C67.3574 104.529 67.4141 104.734 67.4883 104.906V105H66.3574C66.3027 104.875 66.2598 104.709 66.2285 104.502C66.1973 104.291 66.1816 104.096 66.1816 103.916ZM66.3691 101.156L66.3809 101.918H65.2852C64.9766 101.918 64.7012 101.943 64.459 101.994C64.2168 102.041 64.0137 102.113 63.8496 102.211C63.6855 102.309 63.5605 102.432 63.4746 102.58C63.3887 102.725 63.3457 102.895 63.3457 103.09C63.3457 103.289 63.3906 103.471 63.4805 103.635C63.5703 103.799 63.7051 103.93 63.8848 104.027C64.0684 104.121 64.293 104.168 64.5586 104.168C64.8906 104.168 65.1836 104.098 65.4375 103.957C65.6914 103.816 65.8926 103.645 66.041 103.441C66.1934 103.238 66.2754 103.041 66.2871 102.85L66.75 103.371C66.7227 103.535 66.6484 103.717 66.5273 103.916C66.4062 104.115 66.2441 104.307 66.041 104.49C65.8418 104.67 65.6035 104.82 65.3262 104.941C65.0527 105.059 64.7441 105.117 64.4004 105.117C63.9707 105.117 63.5938 105.033 63.2695 104.865C62.9492 104.697 62.6992 104.473 62.5195 104.191C62.3438 103.906 62.2559 103.588 62.2559 103.236C62.2559 102.896 62.3223 102.598 62.4551 102.34C62.5879 102.078 62.7793 101.861 63.0293 101.689C63.2793 101.514 63.5801 101.381 63.9316 101.291C64.2832 101.201 64.6758 101.156 65.1094 101.156H66.3691ZM68.9648 96H70.0547V103.77L69.9609 105H68.9648V96ZM74.3379 101.777V101.9C74.3379 102.361 74.2832 102.789 74.1738 103.184C74.0645 103.574 73.9043 103.914 73.6934 104.203C73.4824 104.492 73.2246 104.717 72.9199 104.877C72.6152 105.037 72.2656 105.117 71.8711 105.117C71.4688 105.117 71.1152 105.049 70.8105 104.912C70.5098 104.771 70.2559 104.57 70.0488 104.309C69.8418 104.047 69.6758 103.73 69.5508 103.359C69.4297 102.988 69.3457 102.57 69.2988 102.105V101.566C69.3457 101.098 69.4297 100.678 69.5508 100.307C69.6758 99.9355 69.8418 99.6191 70.0488 99.3574C70.2559 99.0918 70.5098 98.8906 70.8105 98.7539C71.1113 98.6133 71.4609 98.543 71.8594 98.543C72.2578 98.543 72.6113 98.6211 72.9199 98.7773C73.2285 98.9297 73.4863 99.1484 73.6934 99.4336C73.9043 99.7188 74.0645 100.061 74.1738 100.459C74.2832 100.854 74.3379 101.293 74.3379 101.777ZM73.248 101.9V101.777C73.248 101.461 73.2188 101.164 73.1602 100.887C73.1016 100.605 73.0078 100.359 72.8789 100.148C72.75 99.9336 72.5801 99.7656 72.3691 99.6445C72.1582 99.5195 71.8984 99.457 71.5898 99.457C71.3164 99.457 71.0781 99.5039 70.875 99.5977C70.6758 99.6914 70.5059 99.8184 70.3652 99.9785C70.2246 100.135 70.1094 100.314 70.0195 100.518C69.9336 100.717 69.8691 100.924 69.8262 101.139V102.551C69.8887 102.824 69.9902 103.088 70.1309 103.342C70.2754 103.592 70.4668 103.797 70.7051 103.957C70.9473 104.117 71.2461 104.197 71.6016 104.197C71.8945 104.197 72.1445 104.139 72.3516 104.021C72.5625 103.9 72.7324 103.734 72.8613 103.523C72.9941 103.312 73.0918 103.068 73.1543 102.791C73.2168 102.514 73.248 102.217 73.248 101.9ZM76.8867 96V105H75.7969V96H76.8867ZM81.2578 105.117C80.8164 105.117 80.416 105.043 80.0566 104.895C79.7012 104.742 79.3945 104.529 79.1367 104.256C78.8828 103.982 78.6875 103.658 78.5508 103.283C78.4141 102.908 78.3457 102.498 78.3457 102.053V101.807C78.3457 101.291 78.4219 100.832 78.5742 100.43C78.7266 100.023 78.9336 99.6797 79.1953 99.3984C79.457 99.1172 79.7539 98.9043 80.0859 98.7598C80.418 98.6152 80.7617 98.543 81.1172 98.543C81.5703 98.543 81.9609 98.6211 82.2891 98.7773C82.6211 98.9336 82.8926 99.1523 83.1035 99.4336C83.3145 99.7109 83.4707 100.039 83.5723 100.418C83.6738 100.793 83.7246 101.203 83.7246 101.648V102.135H78.9902V101.25H82.6406V101.168C82.625 100.887 82.5664 100.613 82.4648 100.348C82.3672 100.082 82.2109 99.8633 81.9961 99.6914C81.7812 99.5195 81.4883 99.4336 81.1172 99.4336C80.8711 99.4336 80.6445 99.4863 80.4375 99.5918C80.2305 99.6934 80.0527 99.8457 79.9043 100.049C79.7559 100.252 79.6406 100.5 79.5586 100.793C79.4766 101.086 79.4355 101.424 79.4355 101.807V102.053C79.4355 102.354 79.4766 102.637 79.5586 102.902C79.6445 103.164 79.7676 103.395 79.9277 103.594C80.0918 103.793 80.2891 103.949 80.5195 104.062C80.7539 104.176 81.0195 104.232 81.3164 104.232C81.6992 104.232 82.0234 104.154 82.2891 103.998C82.5547 103.842 82.7871 103.633 82.9863 103.371L83.6426 103.893C83.5059 104.1 83.332 104.297 83.1211 104.484C82.9102 104.672 82.6504 104.824 82.3418 104.941C82.0371 105.059 81.6758 105.117 81.2578 105.117Z" fill="white"/>
</g>
<defs>
<clipPath id="clip0_102_2">
<rect width="115.46" height="122.88" fill="white"/>
</clipPath>
</defs>
</svg>
